<svg width="281" height="281" viewBox="0 0 281 281" fill="none" xmlns="http://www.w3.org/2000/svg">
<path d="M154.757 43.6409C154.757 51.2773 148.543 57.4738 140.871 57.4738C133.198 57.4738 126.985 51.2773 126.985 43.6409C126.985 36.0046 133.198 29.808 140.871 29.808C148.543 29.808 154.757 36.0046 154.757 43.6409Z" fill="white" stroke="black" stroke-width="2"/>
<rect x="128.497" y="55.1576" width="24.3452" height="1.72413" rx="0.862067" fill="white" stroke="black" stroke-width="1.72413"/>
<path d="M103.064 202.932V198.929C112.576 188.012 118.335 173.755 118.335 158.161C118.335 145.431 114.497 133.591 107.911 123.732H173.427C166.842 133.591 163.004 145.431 163.004 158.161C163.004 173.755 168.763 188.012 178.275 198.929V202.932H103.064Z" fill="white" stroke="black" stroke-width="2"/>
<path fill-rule="evenodd" clip-rule="evenodd" d="M140.669 56.0197H133.262L102.284 100.397C99.575 105.014 97.7833 115.944 112.289 122.732H140.669H169.05C183.555 115.944 181.763 105.014 179.054 100.397L148.077 56.0197H140.669Z" fill="white"/>
<path d="M133.262 56.0197V55.0197H132.74L132.442 55.4473L133.262 56.0197ZM102.284 100.397L101.464 99.8248L101.441 99.8571L101.422 99.8911L102.284 100.397ZM112.289 122.732L111.865 123.638L112.066 123.732H112.289V122.732ZM169.05 122.732V123.732H169.272L169.474 123.638L169.05 122.732ZM179.054 100.397L179.917 99.8911L179.897 99.8571L179.874 99.8248L179.054 100.397ZM148.077 56.0197L148.897 55.4473L148.598 55.0197H148.077V56.0197ZM133.262 57.0197H140.669V55.0197H133.262V57.0197ZM103.104 100.97L134.081 56.592L132.442 55.4473L101.464 99.8248L103.104 100.97ZM112.713 121.827C105.677 118.534 102.742 114.32 101.802 110.511C100.849 106.652 101.898 103.032 103.147 100.903L101.422 99.8911C99.9615 102.379 98.7595 106.532 99.8601 110.99C100.973 115.497 104.395 120.142 111.865 123.638L112.713 121.827ZM140.669 121.732H112.289V123.732H140.669V121.732ZM140.669 123.732H169.05V121.732H140.669V123.732ZM169.474 123.638C176.943 120.142 180.365 115.497 181.478 110.99C182.579 106.532 181.377 102.379 179.917 99.8911L178.192 100.903C179.441 103.032 180.489 106.652 179.537 110.511C178.596 114.32 175.662 118.534 168.626 121.827L169.474 123.638ZM179.874 99.8248L148.897 55.4473L147.257 56.592L178.234 100.97L179.874 99.8248ZM148.077 55.0197H140.669V57.0197H148.077V55.0197Z" fill="black"/>
<rect x="99.4049" y="123.732" width="82.5286" height="9.18089" rx="4.59044" fill="white" stroke="black" stroke-width="2"/>
<rect x="91.9965" y="204.932" width="97.3452" height="12.9063" fill="white" stroke="black" stroke-width="2"/>
<rect x="78.9652" y="219.838" width="123.408" height="13.6511" fill="white" stroke="black" stroke-width="2"/>
<rect x="70.6581" y="235.489" width="140.022" height="13.6511" fill="white" stroke="black" stroke-width="2"/>
</svg>
