<svg width="281" height="280" viewBox="0 0 281 280" fill="none" xmlns="http://www.w3.org/2000/svg">
<path d="M189.256 90.2523C189.256 98.6989 183.853 109.381 174.918 117.993C166.009 126.579 153.746 132.951 140.256 132.951C126.767 132.951 114.504 126.579 105.595 117.993C96.6599 109.381 91.2563 98.6989 91.2563 90.2523C91.2563 81.8967 96.5631 74.1905 105.439 68.524C114.304 62.8649 126.611 59.3319 140.256 59.3319C153.902 59.3319 166.209 62.8649 175.074 68.524C183.95 74.1905 189.256 81.8967 189.256 90.2523Z" fill="white" stroke="black" stroke-width="2"/>
<path d="M136.437 43.4327H137.437V42.4327V30.4065H142.421V42.4327V43.4327H143.421H155.447V48.4159H143.421H142.421V49.4159V61.4423H137.437V49.4159V48.4159H136.437H124.411V43.4327H136.437Z" fill="white" stroke="black" stroke-width="2"/>
<rect x="98.6647" y="118.634" width="82.5286" height="3.36703" rx="1.68352" fill="white" stroke="black" stroke-width="2"/>
<path d="M102.323 203.22V199.197C111.836 188.241 117.595 173.934 117.595 158.286C117.595 145.508 113.755 133.625 107.168 123.73H172.69C166.103 133.625 162.263 145.508 162.263 158.286C162.263 173.934 168.022 188.241 177.535 199.197V203.22H102.323Z" fill="white" stroke="black" stroke-width="2"/>
<rect x="98.6647" y="123.73" width="82.5286" height="9.22081" rx="4.61041" fill="white" stroke="black" stroke-width="2"/>
<rect x="91.2563" y="205.22" width="97.3452" height="12.9595" fill="white" stroke="black" stroke-width="2"/>
<rect x="78.225" y="220.18" width="123.408" height="13.707" fill="white" stroke="black" stroke-width="2"/>
<rect x="69.9179" y="235.886" width="140.022" height="13.707" fill="white" stroke="black" stroke-width="2"/>
<circle cx="140.218" cy="45.7923" r="6.73348" fill="white" stroke="black" stroke-width="2"/>
</svg>
