<svg width="281" height="280" viewBox="0 0 281 280" fill="none" xmlns="http://www.w3.org/2000/svg">
<path d="M189.596 89.7523C189.596 98.1989 184.193 108.881 175.258 117.493C166.349 126.079 154.086 132.451 140.596 132.451C127.107 132.451 114.844 126.079 105.935 117.493C97.0001 108.881 91.5965 98.1989 91.5965 89.7523C91.5965 81.3967 96.9033 73.6905 105.779 68.024C114.644 62.3649 126.951 58.8319 140.596 58.8319C154.242 58.8319 166.549 62.3649 175.414 68.024C184.29 73.6905 189.596 81.3967 189.596 89.7523Z" fill="#333333" stroke="black" stroke-width="2"/>
<path d="M136.777 42.9327H137.777V41.9327V29.9065H142.761V41.9327V42.9327H143.761H155.787V47.9159H143.761H142.761V48.9159V60.9423H137.777V48.9159V47.9159H136.777H124.751V42.9327H136.777Z" fill="#333333" stroke="black" stroke-width="2"/>
<rect x="99.0049" y="118.134" width="82.5286" height="3.36703" rx="1.68352" fill="#333333" stroke="black" stroke-width="2"/>
<path d="M102.664 202.72V198.697C112.176 187.741 117.935 173.434 117.935 157.786C117.935 145.008 114.095 133.125 107.508 123.23H173.031C166.443 133.125 162.603 145.008 162.603 157.786C162.603 173.434 168.362 187.741 177.875 198.697V202.72H102.664Z" fill="#333333" stroke="black" stroke-width="2"/>
<rect x="99.0049" y="123.23" width="82.5286" height="9.22081" rx="4.61041" fill="#333333" stroke="black" stroke-width="2"/>
<rect x="91.5965" y="204.72" width="97.3452" height="12.9595" fill="#333333" stroke="black" stroke-width="2"/>
<rect x="78.5652" y="219.68" width="123.408" height="13.707" fill="#333333" stroke="black" stroke-width="2"/>
<rect x="70.2581" y="235.386" width="140.022" height="13.707" fill="#333333" stroke="black" stroke-width="2"/>
<circle cx="140.558" cy="45.2923" r="6.73348" fill="#333333" stroke="black" stroke-width="2"/>
</svg>
