<svg width="281" height="281" viewBox="0 0 281 281" fill="none" xmlns="http://www.w3.org/2000/svg">
<path d="M169.417 82.1788C169.417 96.2127 156.654 107.775 140.669 107.775C124.684 107.775 111.922 96.2127 111.922 82.1788C111.922 68.145 124.684 56.583 140.669 56.583C156.654 56.583 169.417 68.145 169.417 82.1788Z" fill="#333333" stroke="black" stroke-width="2"/>
<path d="M103.064 178.044V174.021C112.576 163.064 118.335 148.758 118.335 133.109C118.335 120.332 114.496 108.449 107.908 98.5538H173.431C166.843 108.449 163.004 120.332 163.004 133.109C163.004 148.758 168.762 163.064 178.275 174.021V178.044H103.064Z" fill="#333333" stroke="black" stroke-width="2"/>
<rect x="99.4049" y="98.5538" width="82.5286" height="9.22081" rx="4.61041" fill="#333333" stroke="black" stroke-width="2"/>
<rect x="91.9965" y="180.044" width="97.3452" height="12.9595" fill="#333333" stroke="black" stroke-width="2"/>
<rect x="78.9652" y="195.003" width="123.408" height="13.707" fill="#333333" stroke="black" stroke-width="2"/>
<rect x="70.6581" y="210.71" width="140.022" height="13.707" fill="#333333" stroke="black" stroke-width="2"/>
</svg>
