<svg width="281" height="281" viewBox="0 0 281 281" fill="none" xmlns="http://www.w3.org/2000/svg">
<rect x="98.8049" y="110.718" width="82.5286" height="3.36703" rx="1.68352" fill="#333333" stroke="black" stroke-width="2"/>
<path d="M102.464 195.304V191.281C111.976 180.324 117.735 166.018 117.735 150.369C117.735 137.592 113.896 125.709 107.308 115.814H172.831C166.243 125.709 162.404 137.592 162.404 150.369C162.404 166.018 168.162 180.324 177.675 191.281V195.304H102.464Z" fill="#333333" stroke="black" stroke-width="2"/>
<rect x="98.8049" y="115.814" width="82.5286" height="9.22081" rx="4.61041" fill="#333333" stroke="black" stroke-width="2"/>
<rect x="91.3965" y="197.304" width="97.3452" height="12.9595" fill="#333333" stroke="black" stroke-width="2"/>
<rect x="78.3652" y="212.263" width="123.408" height="13.707" fill="#333333" stroke="black" stroke-width="2"/>
<rect x="70.0581" y="227.97" width="140.022" height="13.707" fill="#333333" stroke="black" stroke-width="2"/>
<mask id="path-7-inside-1_2_385" fill="white">
<path fill-rule="evenodd" clip-rule="evenodd" d="M149.56 60.6152C151.915 58.2583 153.372 55.0032 153.372 51.4078C153.372 44.2142 147.54 38.3826 140.347 38.3826C133.153 38.3826 127.321 44.2142 127.321 51.4078C127.321 55.0032 128.778 58.2583 131.134 60.6152L118.474 75.6152L140.347 89.7464L162.219 75.6152L149.56 60.6152Z"/>
</mask>
<path fill-rule="evenodd" clip-rule="evenodd" d="M149.56 60.6152C151.915 58.2583 153.372 55.0032 153.372 51.4078C153.372 44.2142 147.54 38.3826 140.347 38.3826C133.153 38.3826 127.321 44.2142 127.321 51.4078C127.321 55.0032 128.778 58.2583 131.134 60.6152L118.474 75.6152L140.347 89.7464L162.219 75.6152L149.56 60.6152Z" fill="#333333"/>
<path d="M149.56 60.6152L148.145 59.2014L146.846 60.501L148.031 61.9052L149.56 60.6152ZM131.134 60.6152L132.662 61.9052L133.847 60.501L132.548 59.2014L131.134 60.6152ZM118.474 75.6152L116.946 74.3252L115.48 76.0619L117.389 77.2951L118.474 75.6152ZM140.347 89.7464L139.261 91.4263L140.347 92.1274L141.432 91.4263L140.347 89.7464ZM162.219 75.6152L163.305 77.2951L165.213 76.0619L163.748 74.3252L162.219 75.6152ZM151.372 51.4078C151.372 54.4517 150.141 57.2043 148.145 59.2014L150.974 62.029C153.689 59.3124 155.372 55.5547 155.372 51.4078H151.372ZM140.347 40.3826C146.436 40.3826 151.372 45.3187 151.372 51.4078H155.372C155.372 43.1096 148.645 36.3826 140.347 36.3826V40.3826ZM129.321 51.4078C129.321 45.3187 134.258 40.3826 140.347 40.3826V36.3826C132.048 36.3826 125.321 43.1096 125.321 51.4078H129.321ZM132.548 59.2014C130.552 57.2043 129.321 54.4517 129.321 51.4078H125.321C125.321 55.5547 127.004 59.3124 129.719 62.029L132.548 59.2014ZM129.605 59.3253L116.946 74.3252L120.003 76.9051L132.662 61.9052L129.605 59.3253ZM117.389 77.2951L139.261 91.4263L141.432 88.0665L119.559 73.9353L117.389 77.2951ZM141.432 91.4263L163.305 77.2951L161.134 73.9353L139.261 88.0665L141.432 91.4263ZM163.748 74.3252L151.088 59.3253L148.031 61.9052L160.691 76.9051L163.748 74.3252Z" fill="black" mask="url(#path-7-inside-1_2_385)"/>
<path d="M105.091 112.401C102.656 105.706 95.3969 90.3239 85.8355 82.3561C76.2742 74.3883 84.3969 72.5071 89.6534 72.5624C92.4129 73.1421 99.1878 75.1071 104.211 78.3289C107.409 80.3799 107.224 77.4101 107 73.8102C106.785 70.3418 106.532 66.2884 109.234 65.5773C114.694 64.1405 119.014 67.9276 126.715 74.6782L126.913 74.8512C130.944 78.3847 131.973 75.0699 133.23 71.0252C134.412 67.2188 135.795 62.766 140.069 62.766C144.344 62.766 145.727 67.2188 146.909 71.0252C148.165 75.0699 149.194 78.3847 153.226 74.8512L153.423 74.6782C161.124 67.9276 165.444 64.1405 170.904 65.5773C173.606 66.2884 173.354 70.3418 173.138 73.8102C172.914 77.4101 172.729 80.3799 175.927 78.3289C180.951 75.1071 187.725 73.1421 190.485 72.5624C195.741 72.5071 203.864 74.3883 194.303 82.3561C184.741 90.3239 177.482 105.706 175.047 112.401H105.091Z" fill="#333333" stroke="black" stroke-width="2"/>
</svg>
