<svg width="281" height="281" viewBox="0 0 281 281" fill="none" xmlns="http://www.w3.org/2000/svg">
<rect x="86.1729" y="93.5696" width="108.393" height="9.22081" rx="4.61041" fill="#333333" stroke="black" stroke-width="2"/>
<rect x="91.6965" y="175.059" width="97.3452" height="12.9595" fill="#333333" stroke="black" stroke-width="2"/>
<rect x="78.6652" y="190.019" width="123.408" height="13.707" fill="#333333" stroke="black" stroke-width="2"/>
<rect x="70.3581" y="205.726" width="140.022" height="13.707" fill="#333333" stroke="black" stroke-width="2"/>
<path d="M100.916 103.79C102.181 104.322 104.71 105.782 104.71 107.376C104.71 108.969 98.6399 153.986 95.6051 176.295C95.0993 177.756 93.6324 180.797 91.8115 181.275C89.9906 181.753 123.425 181.474 140.369 181.275C157.314 181.474 190.748 181.753 188.927 181.275C187.106 180.797 185.639 177.756 185.133 176.295C182.098 153.986 176.029 108.969 176.029 107.376C176.029 105.782 178.558 104.322 179.822 103.79H140.369H100.916Z" fill="#333333" stroke="black" stroke-width="2"/>
<path d="M194.476 58.9895L191.947 94.0642L177.737 92.9332H89.565L84.5527 59.2138H110.07L111.437 84.8071H127.993V59.2138H152.295V84.8071H177.737L177.501 59.2627L194.476 58.9895Z" fill="#3D3D3D" stroke="black" stroke-width="2"/>
<path d="M189.4 79.219L190.611 59.2615H194.296L192.979 79.219H193.006L192.63 84.52L192.454 87.1917H192.44L191.947 94.1537H88.7555L84.3935 59.3463H103.664L105.23 79.219H116.551L114.865 59.3463H141.362V79.219H157.621V59.3463H181.348V79.219H189.4Z" fill="#333333" stroke="black" stroke-width="2"/>
</svg>
