<svg width="281" height="281" viewBox="0 0 281 281" fill="none" xmlns="http://www.w3.org/2000/svg">
<path d="M100.916 103.816C102.181 104.347 104.71 105.808 104.71 107.402C104.71 108.995 98.6399 154.012 95.6051 176.321C95.0993 177.782 93.6324 180.823 91.8115 181.301C89.9906 181.779 123.425 181.5 140.369 181.301C157.314 181.5 190.748 181.779 188.927 181.301C187.106 180.823 185.639 177.782 185.133 176.321C182.098 154.012 176.029 108.995 176.029 107.402C176.029 105.808 178.558 104.347 179.822 103.816H140.369H100.916Z" fill="white" stroke="black" stroke-width="2"/>
<rect x="86.1729" y="93.5955" width="108.393" height="9.22081" rx="4.61041" fill="white" stroke="black" stroke-width="2"/>
<rect x="91.6965" y="175.085" width="97.3452" height="12.9595" fill="white" stroke="black" stroke-width="2"/>
<rect x="78.6652" y="190.045" width="123.408" height="13.707" fill="white" stroke="black" stroke-width="2"/>
<rect x="70.3581" y="205.752" width="140.022" height="13.707" fill="white" stroke="black" stroke-width="2"/>
<path d="M194.476 59.0154L191.947 94.0901L177.737 92.9591H89.565L84.5527 59.2397H110.07L111.437 84.833H127.993V59.2397H152.295V84.833H177.737L177.501 59.2886L194.476 59.0154Z" fill="#F1F1F1"/>
<path d="M189.4 79.2449L190.611 59.2874H194.296L192.979 79.2449H193.006L192.63 84.5459L192.454 87.2176H192.44L191.947 94.1795H88.7555L84.3935 59.3722H103.664L105.23 79.2449H116.551L114.865 59.3722H141.362V79.2449H157.621V59.3722H181.348V79.2449H189.4Z" fill="white" stroke="black" stroke-width="2"/>
</svg>
